<mxfile host="app.diagrams.net" modified="2024-03-13T15:34:41.677Z" agent="Mozilla/5.0 (X11; Linux x86_64) AppleWebKit/537.36 (KHTML, like Gecko) Chrome/116.0.0.0 Safari/537.36" etag="wkDIrBIFdarqWVmapRH8" version="24.0.5" type="device">
  <diagram name="Page-1" id="cslKWK_1vKfkHxBdKkXi">
    <mxGraphModel dx="1259" dy="712" grid="1" gridSize="10" guides="1" tooltips="1" connect="1" arrows="1" fold="1" page="1" pageScale="1" pageWidth="850" pageHeight="1100" math="0" shadow="0">
      <root>
        <mxCell id="0" />
        <mxCell id="1" parent="0" />
        <mxCell id="rBTdQDyXdU8cpYvEh4Aw-1" value="" style="rounded=0;whiteSpace=wrap;html=1;" vertex="1" parent="1">
          <mxGeometry x="250" y="660" width="150" height="420" as="geometry" />
        </mxCell>
        <mxCell id="rBTdQDyXdU8cpYvEh4Aw-3" value="Electronics" style="text;html=1;align=center;verticalAlign=middle;whiteSpace=wrap;rounded=0;" vertex="1" parent="1">
          <mxGeometry x="250" y="685" width="60" height="30" as="geometry" />
        </mxCell>
        <mxCell id="rBTdQDyXdU8cpYvEh4Aw-4" value="" style="rounded=0;whiteSpace=wrap;html=1;" vertex="1" parent="1">
          <mxGeometry x="280" y="80" width="290" height="390" as="geometry" />
        </mxCell>
        <mxCell id="rBTdQDyXdU8cpYvEh4Aw-5" value="web interfaces" style="text;html=1;align=center;verticalAlign=middle;whiteSpace=wrap;rounded=0;" vertex="1" parent="1">
          <mxGeometry x="420" y="100" width="60" height="30" as="geometry" />
        </mxCell>
        <mxCell id="rBTdQDyXdU8cpYvEh4Aw-6" value="" style="rounded=0;whiteSpace=wrap;html=1;" vertex="1" parent="1">
          <mxGeometry x="660" y="20" width="140" height="220" as="geometry" />
        </mxCell>
        <mxCell id="rBTdQDyXdU8cpYvEh4Aw-7" value="AI" style="text;html=1;align=center;verticalAlign=middle;whiteSpace=wrap;rounded=0;" vertex="1" parent="1">
          <mxGeometry x="665" y="40" width="60" height="30" as="geometry" />
        </mxCell>
        <mxCell id="rBTdQDyXdU8cpYvEh4Aw-8" value="" style="rounded=0;whiteSpace=wrap;html=1;" vertex="1" parent="1">
          <mxGeometry x="490" y="770" width="140" height="310" as="geometry" />
        </mxCell>
        <mxCell id="rBTdQDyXdU8cpYvEh4Aw-9" value="visual efects" style="text;html=1;align=center;verticalAlign=middle;whiteSpace=wrap;rounded=0;" vertex="1" parent="1">
          <mxGeometry x="490" y="780" width="60" height="30" as="geometry" />
        </mxCell>
        <mxCell id="rBTdQDyXdU8cpYvEh4Aw-10" value="" style="rounded=0;whiteSpace=wrap;html=1;" vertex="1" parent="1">
          <mxGeometry x="655" y="280" width="150" height="500" as="geometry" />
        </mxCell>
        <mxCell id="rBTdQDyXdU8cpYvEh4Aw-11" value="data" style="text;html=1;align=center;verticalAlign=middle;whiteSpace=wrap;rounded=0;" vertex="1" parent="1">
          <mxGeometry x="665" y="295" width="60" height="30" as="geometry" />
        </mxCell>
        <mxCell id="rBTdQDyXdU8cpYvEh4Aw-12" value="" style="shape=module;align=left;spacingLeft=20;align=center;verticalAlign=top;whiteSpace=wrap;html=1;" vertex="1" parent="1">
          <mxGeometry x="735" y="290" width="60" height="40" as="geometry" />
        </mxCell>
        <mxCell id="rBTdQDyXdU8cpYvEh4Aw-13" value="" style="shape=module;align=left;spacingLeft=20;align=center;verticalAlign=top;whiteSpace=wrap;html=1;" vertex="1" parent="1">
          <mxGeometry x="550" y="780" width="60" height="40" as="geometry" />
        </mxCell>
        <mxCell id="rBTdQDyXdU8cpYvEh4Aw-14" value="" style="shape=module;align=left;spacingLeft=20;align=center;verticalAlign=top;whiteSpace=wrap;html=1;" vertex="1" parent="1">
          <mxGeometry x="500" y="90" width="60" height="40" as="geometry" />
        </mxCell>
        <mxCell id="rBTdQDyXdU8cpYvEh4Aw-15" value="" style="shape=module;align=left;spacingLeft=20;align=center;verticalAlign=top;whiteSpace=wrap;html=1;" vertex="1" parent="1">
          <mxGeometry x="320" y="670" width="60" height="40" as="geometry" />
        </mxCell>
        <mxCell id="rBTdQDyXdU8cpYvEh4Aw-16" value="" style="shape=module;align=left;spacingLeft=20;align=center;verticalAlign=top;whiteSpace=wrap;html=1;" vertex="1" parent="1">
          <mxGeometry x="725" y="40" width="60" height="40" as="geometry" />
        </mxCell>
        <mxCell id="rBTdQDyXdU8cpYvEh4Aw-17" value="Csv catalog of calypso" style="html=1;whiteSpace=wrap;" vertex="1" parent="1">
          <mxGeometry x="674" y="350" width="110" height="50" as="geometry" />
        </mxCell>
        <mxCell id="rBTdQDyXdU8cpYvEh4Aw-18" value="car" style="html=1;whiteSpace=wrap;" vertex="1" parent="1">
          <mxGeometry x="675" y="480" width="110" height="50" as="geometry" />
        </mxCell>
        <mxCell id="rBTdQDyXdU8cpYvEh4Aw-19" value="Dataset diases" style="html=1;whiteSpace=wrap;" vertex="1" parent="1">
          <mxGeometry x="675" y="410" width="110" height="50" as="geometry" />
        </mxCell>
        <mxCell id="rBTdQDyXdU8cpYvEh4Aw-20" value="data base of user" style="html=1;whiteSpace=wrap;" vertex="1" parent="1">
          <mxGeometry x="675" y="540" width="110" height="50" as="geometry" />
        </mxCell>
        <mxCell id="rBTdQDyXdU8cpYvEh4Aw-21" value="data base of product" style="html=1;whiteSpace=wrap;" vertex="1" parent="1">
          <mxGeometry x="675" y="600" width="110" height="50" as="geometry" />
        </mxCell>
        <mxCell id="rBTdQDyXdU8cpYvEh4Aw-22" value="sales chat" style="html=1;whiteSpace=wrap;" vertex="1" parent="1">
          <mxGeometry x="675" y="105" width="110" height="50" as="geometry" />
        </mxCell>
        <mxCell id="rBTdQDyXdU8cpYvEh4Aw-23" value="fish diase clasifier" style="html=1;whiteSpace=wrap;" vertex="1" parent="1">
          <mxGeometry x="675" y="170" width="110" height="50" as="geometry" />
        </mxCell>
        <mxCell id="rBTdQDyXdU8cpYvEh4Aw-24" value="lights" style="html=1;whiteSpace=wrap;" vertex="1" parent="1">
          <mxGeometry x="260" y="720" width="110" height="50" as="geometry" />
        </mxCell>
        <mxCell id="rBTdQDyXdU8cpYvEh4Aw-25" value="Influx" style="html=1;whiteSpace=wrap;" vertex="1" parent="1">
          <mxGeometry x="675" y="660" width="110" height="50" as="geometry" />
        </mxCell>
        <mxCell id="rBTdQDyXdU8cpYvEh4Aw-26" value="sensors" style="html=1;whiteSpace=wrap;" vertex="1" parent="1">
          <mxGeometry x="260" y="790" width="110" height="50" as="geometry" />
        </mxCell>
        <mxCell id="rBTdQDyXdU8cpYvEh4Aw-28" value="bluethoot" style="html=1;whiteSpace=wrap;" vertex="1" parent="1">
          <mxGeometry x="260" y="860" width="110" height="50" as="geometry" />
        </mxCell>
        <mxCell id="rBTdQDyXdU8cpYvEh4Aw-29" value="Wifi" style="html=1;whiteSpace=wrap;" vertex="1" parent="1">
          <mxGeometry x="260" y="930" width="110" height="50" as="geometry" />
        </mxCell>
        <mxCell id="rBTdQDyXdU8cpYvEh4Aw-30" value="feeder" style="html=1;whiteSpace=wrap;" vertex="1" parent="1">
          <mxGeometry x="260" y="1000" width="110" height="50" as="geometry" />
        </mxCell>
        <mxCell id="rBTdQDyXdU8cpYvEh4Aw-31" value="Map" style="html=1;whiteSpace=wrap;" vertex="1" parent="1">
          <mxGeometry x="500" y="840" width="110" height="50" as="geometry" />
        </mxCell>
        <mxCell id="rBTdQDyXdU8cpYvEh4Aw-32" value="fishtank visualizer" style="html=1;whiteSpace=wrap;" vertex="1" parent="1">
          <mxGeometry x="500" y="900" width="110" height="50" as="geometry" />
        </mxCell>
        <mxCell id="rBTdQDyXdU8cpYvEh4Aw-33" value="Dashboard" style="html=1;whiteSpace=wrap;" vertex="1" parent="1">
          <mxGeometry x="500" y="960" width="110" height="50" as="geometry" />
        </mxCell>
        <mxCell id="rBTdQDyXdU8cpYvEh4Aw-34" value="Frontend" style="html=1;whiteSpace=wrap;" vertex="1" parent="1">
          <mxGeometry x="500" y="1015" width="110" height="50" as="geometry" />
        </mxCell>
        <mxCell id="rBTdQDyXdU8cpYvEh4Aw-35" value="cordenates of fishtanks" style="html=1;whiteSpace=wrap;" vertex="1" parent="1">
          <mxGeometry x="675" y="720" width="110" height="50" as="geometry" />
        </mxCell>
        <mxCell id="rBTdQDyXdU8cpYvEh4Aw-36" value="Chat of sales" style="html=1;whiteSpace=wrap;" vertex="1" parent="1">
          <mxGeometry x="440" y="150" width="110" height="50" as="geometry" />
        </mxCell>
        <mxCell id="rBTdQDyXdU8cpYvEh4Aw-37" value="fish diases clasifier" style="html=1;whiteSpace=wrap;" vertex="1" parent="1">
          <mxGeometry x="440" y="210" width="110" height="50" as="geometry" />
        </mxCell>
        <mxCell id="rBTdQDyXdU8cpYvEh4Aw-38" value="Map" style="html=1;whiteSpace=wrap;" vertex="1" parent="1">
          <mxGeometry x="440" y="270" width="110" height="50" as="geometry" />
        </mxCell>
        <mxCell id="rBTdQDyXdU8cpYvEh4Aw-39" value="Catalog" style="html=1;whiteSpace=wrap;" vertex="1" parent="1">
          <mxGeometry x="440" y="330" width="110" height="50" as="geometry" />
        </mxCell>
        <mxCell id="rBTdQDyXdU8cpYvEh4Aw-40" value="fishtnak visualizer" style="html=1;whiteSpace=wrap;" vertex="1" parent="1">
          <mxGeometry x="440" y="390" width="110" height="50" as="geometry" />
        </mxCell>
        <mxCell id="rBTdQDyXdU8cpYvEh4Aw-41" value="Loging/register" style="html=1;whiteSpace=wrap;" vertex="1" parent="1">
          <mxGeometry x="300" y="330" width="110" height="50" as="geometry" />
        </mxCell>
        <mxCell id="rBTdQDyXdU8cpYvEh4Aw-42" value="Admin interface" style="html=1;whiteSpace=wrap;" vertex="1" parent="1">
          <mxGeometry x="300" y="270" width="110" height="50" as="geometry" />
        </mxCell>
        <mxCell id="rBTdQDyXdU8cpYvEh4Aw-43" value="Filter product by category" style="html=1;whiteSpace=wrap;" vertex="1" parent="1">
          <mxGeometry x="300" y="150" width="110" height="50" as="geometry" />
        </mxCell>
        <mxCell id="rBTdQDyXdU8cpYvEh4Aw-44" value="Pay" style="html=1;whiteSpace=wrap;" vertex="1" parent="1">
          <mxGeometry x="300" y="210" width="110" height="50" as="geometry" />
        </mxCell>
        <mxCell id="rBTdQDyXdU8cpYvEh4Aw-45" value="informative sites" style="html=1;whiteSpace=wrap;" vertex="1" parent="1">
          <mxGeometry x="300" y="390" width="110" height="50" as="geometry" />
        </mxCell>
        <mxCell id="rBTdQDyXdU8cpYvEh4Aw-46" value="" style="rounded=0;orthogonalLoop=1;jettySize=auto;html=1;endArrow=halfCircle;endFill=0;endSize=6;strokeWidth=1;sketch=0;" edge="1" parent="1" source="rBTdQDyXdU8cpYvEh4Aw-22">
          <mxGeometry relative="1" as="geometry">
            <mxPoint x="450" y="325" as="sourcePoint" />
            <mxPoint x="620" y="170" as="targetPoint" />
          </mxGeometry>
        </mxCell>
        <mxCell id="rBTdQDyXdU8cpYvEh4Aw-47" value="" style="rounded=0;orthogonalLoop=1;jettySize=auto;html=1;endArrow=oval;endFill=0;sketch=0;sourcePerimeterSpacing=0;targetPerimeterSpacing=0;endSize=10;" edge="1" parent="1" source="rBTdQDyXdU8cpYvEh4Aw-36">
          <mxGeometry relative="1" as="geometry">
            <mxPoint x="410" y="325" as="sourcePoint" />
            <mxPoint x="620" y="170" as="targetPoint" />
          </mxGeometry>
        </mxCell>
        <mxCell id="rBTdQDyXdU8cpYvEh4Aw-48" value="" style="ellipse;whiteSpace=wrap;html=1;align=center;aspect=fixed;fillColor=none;strokeColor=none;resizable=0;perimeter=centerPerimeter;rotatable=0;allowArrows=0;points=[];outlineConnect=1;" vertex="1" parent="1">
          <mxGeometry x="425" y="320" width="10" height="10" as="geometry" />
        </mxCell>
        <mxCell id="rBTdQDyXdU8cpYvEh4Aw-49" value="" style="rounded=0;orthogonalLoop=1;jettySize=auto;html=1;endArrow=halfCircle;endFill=0;endSize=6;strokeWidth=1;sketch=0;" edge="1" parent="1" source="rBTdQDyXdU8cpYvEh4Aw-17">
          <mxGeometry relative="1" as="geometry">
            <mxPoint x="830" y="240" as="sourcePoint" />
            <mxPoint x="830" y="140" as="targetPoint" />
          </mxGeometry>
        </mxCell>
        <mxCell id="rBTdQDyXdU8cpYvEh4Aw-50" value="" style="rounded=0;orthogonalLoop=1;jettySize=auto;html=1;endArrow=oval;endFill=0;sketch=0;sourcePerimeterSpacing=0;targetPerimeterSpacing=0;endSize=10;" edge="1" parent="1" source="rBTdQDyXdU8cpYvEh4Aw-22">
          <mxGeometry relative="1" as="geometry">
            <mxPoint x="430" y="225" as="sourcePoint" />
            <mxPoint x="830" y="140" as="targetPoint" />
          </mxGeometry>
        </mxCell>
        <mxCell id="rBTdQDyXdU8cpYvEh4Aw-51" value="" style="ellipse;whiteSpace=wrap;html=1;align=center;aspect=fixed;fillColor=none;strokeColor=none;resizable=0;perimeter=centerPerimeter;rotatable=0;allowArrows=0;points=[];outlineConnect=1;" vertex="1" parent="1">
          <mxGeometry x="445" y="220" width="10" height="10" as="geometry" />
        </mxCell>
        <mxCell id="rBTdQDyXdU8cpYvEh4Aw-52" value="" style="rounded=0;orthogonalLoop=1;jettySize=auto;html=1;endArrow=halfCircle;endFill=0;endSize=6;strokeWidth=1;sketch=0;exitX=0.25;exitY=1;exitDx=0;exitDy=0;" edge="1" parent="1">
          <mxGeometry relative="1" as="geometry">
            <mxPoint x="702.5" y="210" as="sourcePoint" />
            <mxPoint x="620" y="220" as="targetPoint" />
          </mxGeometry>
        </mxCell>
        <mxCell id="rBTdQDyXdU8cpYvEh4Aw-53" value="" style="rounded=0;orthogonalLoop=1;jettySize=auto;html=1;endArrow=oval;endFill=0;sketch=0;sourcePerimeterSpacing=0;targetPerimeterSpacing=0;endSize=10;" edge="1" parent="1" source="rBTdQDyXdU8cpYvEh4Aw-37">
          <mxGeometry relative="1" as="geometry">
            <mxPoint x="515" y="215" as="sourcePoint" />
            <mxPoint x="620" y="220" as="targetPoint" />
          </mxGeometry>
        </mxCell>
        <mxCell id="rBTdQDyXdU8cpYvEh4Aw-54" value="" style="ellipse;whiteSpace=wrap;html=1;align=center;aspect=fixed;fillColor=none;strokeColor=none;resizable=0;perimeter=centerPerimeter;rotatable=0;allowArrows=0;points=[];outlineConnect=1;" vertex="1" parent="1">
          <mxGeometry x="445" y="210" width="10" height="10" as="geometry" />
        </mxCell>
        <mxCell id="rBTdQDyXdU8cpYvEh4Aw-58" value="" style="rounded=0;orthogonalLoop=1;jettySize=auto;html=1;endArrow=halfCircle;endFill=0;endSize=6;strokeWidth=1;sketch=0;" edge="1" target="rBTdQDyXdU8cpYvEh4Aw-60" parent="1" source="rBTdQDyXdU8cpYvEh4Aw-19">
          <mxGeometry relative="1" as="geometry">
            <mxPoint x="845" y="255" as="sourcePoint" />
          </mxGeometry>
        </mxCell>
        <mxCell id="rBTdQDyXdU8cpYvEh4Aw-59" value="" style="rounded=0;orthogonalLoop=1;jettySize=auto;html=1;endArrow=oval;endFill=0;sketch=0;sourcePerimeterSpacing=0;targetPerimeterSpacing=0;endSize=10;" edge="1" target="rBTdQDyXdU8cpYvEh4Aw-60" parent="1" source="rBTdQDyXdU8cpYvEh4Aw-23">
          <mxGeometry relative="1" as="geometry">
            <mxPoint x="805" y="255" as="sourcePoint" />
          </mxGeometry>
        </mxCell>
        <mxCell id="rBTdQDyXdU8cpYvEh4Aw-60" value="" style="ellipse;whiteSpace=wrap;html=1;align=center;aspect=fixed;fillColor=none;strokeColor=none;resizable=0;perimeter=centerPerimeter;rotatable=0;allowArrows=0;points=[];outlineConnect=1;" vertex="1" parent="1">
          <mxGeometry x="820" y="250" width="10" height="10" as="geometry" />
        </mxCell>
        <mxCell id="rBTdQDyXdU8cpYvEh4Aw-61" value="" style="rounded=0;orthogonalLoop=1;jettySize=auto;html=1;endArrow=halfCircle;endFill=0;endSize=6;strokeWidth=1;sketch=0;" edge="1" target="rBTdQDyXdU8cpYvEh4Aw-63" parent="1" source="rBTdQDyXdU8cpYvEh4Aw-26">
          <mxGeometry relative="1" as="geometry">
            <mxPoint x="500" y="685" as="sourcePoint" />
          </mxGeometry>
        </mxCell>
        <mxCell id="rBTdQDyXdU8cpYvEh4Aw-62" value="" style="rounded=0;orthogonalLoop=1;jettySize=auto;html=1;endArrow=oval;endFill=0;sketch=0;sourcePerimeterSpacing=0;targetPerimeterSpacing=0;endSize=10;" edge="1" target="rBTdQDyXdU8cpYvEh4Aw-63" parent="1" source="rBTdQDyXdU8cpYvEh4Aw-25">
          <mxGeometry relative="1" as="geometry">
            <mxPoint x="460" y="685" as="sourcePoint" />
          </mxGeometry>
        </mxCell>
        <mxCell id="rBTdQDyXdU8cpYvEh4Aw-63" value="" style="ellipse;whiteSpace=wrap;html=1;align=center;aspect=fixed;fillColor=none;strokeColor=none;resizable=0;perimeter=centerPerimeter;rotatable=0;allowArrows=0;points=[];outlineConnect=1;" vertex="1" parent="1">
          <mxGeometry x="475" y="680" width="10" height="10" as="geometry" />
        </mxCell>
        <mxCell id="rBTdQDyXdU8cpYvEh4Aw-64" value="" style="rounded=0;orthogonalLoop=1;jettySize=auto;html=1;endArrow=halfCircle;endFill=0;endSize=6;strokeWidth=1;sketch=0;" edge="1" target="rBTdQDyXdU8cpYvEh4Aw-66" parent="1" source="rBTdQDyXdU8cpYvEh4Aw-25">
          <mxGeometry relative="1" as="geometry">
            <mxPoint x="735" y="925" as="sourcePoint" />
          </mxGeometry>
        </mxCell>
        <mxCell id="rBTdQDyXdU8cpYvEh4Aw-65" value="" style="rounded=0;orthogonalLoop=1;jettySize=auto;html=1;endArrow=oval;endFill=0;sketch=0;sourcePerimeterSpacing=0;targetPerimeterSpacing=0;endSize=10;" edge="1" target="rBTdQDyXdU8cpYvEh4Aw-66" parent="1" source="rBTdQDyXdU8cpYvEh4Aw-33">
          <mxGeometry relative="1" as="geometry">
            <mxPoint x="695" y="925" as="sourcePoint" />
          </mxGeometry>
        </mxCell>
        <mxCell id="rBTdQDyXdU8cpYvEh4Aw-66" value="" style="ellipse;whiteSpace=wrap;html=1;align=center;aspect=fixed;fillColor=none;strokeColor=none;resizable=0;perimeter=centerPerimeter;rotatable=0;allowArrows=0;points=[];outlineConnect=1;" vertex="1" parent="1">
          <mxGeometry x="710" y="920" width="10" height="10" as="geometry" />
        </mxCell>
        <mxCell id="rBTdQDyXdU8cpYvEh4Aw-73" value="" style="rounded=0;orthogonalLoop=1;jettySize=auto;html=1;endArrow=halfCircle;endFill=0;endSize=6;strokeWidth=1;sketch=0;" edge="1" target="rBTdQDyXdU8cpYvEh4Aw-75" parent="1" source="rBTdQDyXdU8cpYvEh4Aw-35">
          <mxGeometry relative="1" as="geometry">
            <mxPoint x="700" y="835" as="sourcePoint" />
          </mxGeometry>
        </mxCell>
        <mxCell id="rBTdQDyXdU8cpYvEh4Aw-74" value="" style="rounded=0;orthogonalLoop=1;jettySize=auto;html=1;endArrow=oval;endFill=0;sketch=0;sourcePerimeterSpacing=0;targetPerimeterSpacing=0;endSize=10;" edge="1" target="rBTdQDyXdU8cpYvEh4Aw-75" parent="1" source="rBTdQDyXdU8cpYvEh4Aw-31">
          <mxGeometry relative="1" as="geometry">
            <mxPoint x="660" y="835" as="sourcePoint" />
          </mxGeometry>
        </mxCell>
        <mxCell id="rBTdQDyXdU8cpYvEh4Aw-75" value="" style="ellipse;whiteSpace=wrap;html=1;align=center;aspect=fixed;fillColor=none;strokeColor=none;resizable=0;perimeter=centerPerimeter;rotatable=0;allowArrows=0;points=[];outlineConnect=1;" vertex="1" parent="1">
          <mxGeometry x="675" y="830" width="10" height="10" as="geometry" />
        </mxCell>
        <mxCell id="rBTdQDyXdU8cpYvEh4Aw-76" value="" style="rounded=0;orthogonalLoop=1;jettySize=auto;html=1;endArrow=halfCircle;endFill=0;endSize=6;strokeWidth=1;sketch=0;" edge="1" target="rBTdQDyXdU8cpYvEh4Aw-78" parent="1" source="rBTdQDyXdU8cpYvEh4Aw-38">
          <mxGeometry relative="1" as="geometry">
            <mxPoint x="550" y="545" as="sourcePoint" />
          </mxGeometry>
        </mxCell>
        <mxCell id="rBTdQDyXdU8cpYvEh4Aw-77" value="" style="rounded=0;orthogonalLoop=1;jettySize=auto;html=1;endArrow=oval;endFill=0;sketch=0;sourcePerimeterSpacing=0;targetPerimeterSpacing=0;endSize=10;" edge="1" target="rBTdQDyXdU8cpYvEh4Aw-78" parent="1" source="rBTdQDyXdU8cpYvEh4Aw-31">
          <mxGeometry relative="1" as="geometry">
            <mxPoint x="510" y="545" as="sourcePoint" />
          </mxGeometry>
        </mxCell>
        <mxCell id="rBTdQDyXdU8cpYvEh4Aw-78" value="" style="ellipse;whiteSpace=wrap;html=1;align=center;aspect=fixed;fillColor=none;strokeColor=none;resizable=0;perimeter=centerPerimeter;rotatable=0;allowArrows=0;points=[];outlineConnect=1;" vertex="1" parent="1">
          <mxGeometry x="525" y="540" width="10" height="10" as="geometry" />
        </mxCell>
        <mxCell id="rBTdQDyXdU8cpYvEh4Aw-79" value="" style="rounded=0;orthogonalLoop=1;jettySize=auto;html=1;endArrow=halfCircle;endFill=0;endSize=6;strokeWidth=1;sketch=0;" edge="1" target="rBTdQDyXdU8cpYvEh4Aw-81" parent="1" source="rBTdQDyXdU8cpYvEh4Aw-40">
          <mxGeometry relative="1" as="geometry">
            <mxPoint x="390" y="605" as="sourcePoint" />
          </mxGeometry>
        </mxCell>
        <mxCell id="rBTdQDyXdU8cpYvEh4Aw-80" value="" style="rounded=0;orthogonalLoop=1;jettySize=auto;html=1;endArrow=oval;endFill=0;sketch=0;sourcePerimeterSpacing=0;targetPerimeterSpacing=0;endSize=10;exitX=0.25;exitY=0;exitDx=0;exitDy=0;" edge="1" target="rBTdQDyXdU8cpYvEh4Aw-81" parent="1" source="rBTdQDyXdU8cpYvEh4Aw-32">
          <mxGeometry relative="1" as="geometry">
            <mxPoint x="350" y="605" as="sourcePoint" />
          </mxGeometry>
        </mxCell>
        <mxCell id="rBTdQDyXdU8cpYvEh4Aw-81" value="" style="ellipse;whiteSpace=wrap;html=1;align=center;aspect=fixed;fillColor=none;strokeColor=none;resizable=0;perimeter=centerPerimeter;rotatable=0;allowArrows=0;points=[];outlineConnect=1;" vertex="1" parent="1">
          <mxGeometry x="500" y="600" width="10" height="10" as="geometry" />
        </mxCell>
        <mxCell id="rBTdQDyXdU8cpYvEh4Aw-85" value="" style="rounded=0;orthogonalLoop=1;jettySize=auto;html=1;endArrow=halfCircle;endFill=0;endSize=6;strokeWidth=1;sketch=0;" edge="1" target="rBTdQDyXdU8cpYvEh4Aw-87" parent="1" source="rBTdQDyXdU8cpYvEh4Aw-18">
          <mxGeometry relative="1" as="geometry">
            <mxPoint x="200" y="530" as="sourcePoint" />
          </mxGeometry>
        </mxCell>
        <mxCell id="rBTdQDyXdU8cpYvEh4Aw-86" value="" style="rounded=0;orthogonalLoop=1;jettySize=auto;html=1;endArrow=oval;endFill=0;sketch=0;sourcePerimeterSpacing=0;targetPerimeterSpacing=0;endSize=10;" edge="1" target="rBTdQDyXdU8cpYvEh4Aw-87" parent="1" source="rBTdQDyXdU8cpYvEh4Aw-44">
          <mxGeometry relative="1" as="geometry">
            <mxPoint x="360" y="530" as="sourcePoint" />
          </mxGeometry>
        </mxCell>
        <mxCell id="rBTdQDyXdU8cpYvEh4Aw-87" value="" style="ellipse;whiteSpace=wrap;html=1;align=center;aspect=fixed;fillColor=none;strokeColor=none;resizable=0;perimeter=centerPerimeter;rotatable=0;allowArrows=0;points=[];outlineConnect=1;" vertex="1" parent="1">
          <mxGeometry x="345" y="500" width="10" height="10" as="geometry" />
        </mxCell>
        <mxCell id="rBTdQDyXdU8cpYvEh4Aw-88" value="" style="rounded=0;orthogonalLoop=1;jettySize=auto;html=1;endArrow=halfCircle;endFill=0;endSize=6;strokeWidth=1;sketch=0;exitX=0.227;exitY=0.4;exitDx=0;exitDy=0;exitPerimeter=0;" edge="1" parent="1" source="rBTdQDyXdU8cpYvEh4Aw-21">
          <mxGeometry relative="1" as="geometry">
            <mxPoint x="390" y="435" as="sourcePoint" />
            <mxPoint x="440" y="560" as="targetPoint" />
          </mxGeometry>
        </mxCell>
        <mxCell id="rBTdQDyXdU8cpYvEh4Aw-89" value="" style="rounded=0;orthogonalLoop=1;jettySize=auto;html=1;endArrow=oval;endFill=0;sketch=0;sourcePerimeterSpacing=0;targetPerimeterSpacing=0;endSize=10;" edge="1" parent="1" source="rBTdQDyXdU8cpYvEh4Aw-39">
          <mxGeometry relative="1" as="geometry">
            <mxPoint x="350" y="435" as="sourcePoint" />
            <mxPoint x="440" y="560" as="targetPoint" />
          </mxGeometry>
        </mxCell>
        <mxCell id="rBTdQDyXdU8cpYvEh4Aw-90" value="" style="ellipse;whiteSpace=wrap;html=1;align=center;aspect=fixed;fillColor=none;strokeColor=none;resizable=0;perimeter=centerPerimeter;rotatable=0;allowArrows=0;points=[];outlineConnect=1;" vertex="1" parent="1">
          <mxGeometry x="365" y="430" width="10" height="10" as="geometry" />
        </mxCell>
        <mxCell id="rBTdQDyXdU8cpYvEh4Aw-91" value="" style="rounded=0;orthogonalLoop=1;jettySize=auto;html=1;endArrow=halfCircle;endFill=0;endSize=6;strokeWidth=1;sketch=0;" edge="1" parent="1" source="rBTdQDyXdU8cpYvEh4Aw-41">
          <mxGeometry relative="1" as="geometry">
            <mxPoint x="290" y="530" as="sourcePoint" />
            <mxPoint x="390" y="540" as="targetPoint" />
          </mxGeometry>
        </mxCell>
        <mxCell id="rBTdQDyXdU8cpYvEh4Aw-92" value="" style="rounded=0;orthogonalLoop=1;jettySize=auto;html=1;endArrow=oval;endFill=0;sketch=0;sourcePerimeterSpacing=0;targetPerimeterSpacing=0;endSize=10;exitX=0;exitY=0.25;exitDx=0;exitDy=0;" edge="1" parent="1" source="rBTdQDyXdU8cpYvEh4Aw-20">
          <mxGeometry relative="1" as="geometry">
            <mxPoint x="350" y="435" as="sourcePoint" />
            <mxPoint x="390" y="540" as="targetPoint" />
          </mxGeometry>
        </mxCell>
        <mxCell id="rBTdQDyXdU8cpYvEh4Aw-93" value="" style="ellipse;whiteSpace=wrap;html=1;align=center;aspect=fixed;fillColor=none;strokeColor=none;resizable=0;perimeter=centerPerimeter;rotatable=0;allowArrows=0;points=[];outlineConnect=1;" vertex="1" parent="1">
          <mxGeometry x="365" y="430" width="10" height="10" as="geometry" />
        </mxCell>
        <mxCell id="rBTdQDyXdU8cpYvEh4Aw-94" value="" style="rounded=0;orthogonalLoop=1;jettySize=auto;html=1;endArrow=halfCircle;endFill=0;endSize=6;strokeWidth=1;sketch=0;exitX=0;exitY=0.75;exitDx=0;exitDy=0;" edge="1" target="rBTdQDyXdU8cpYvEh4Aw-96" parent="1" source="rBTdQDyXdU8cpYvEh4Aw-21">
          <mxGeometry relative="1" as="geometry">
            <mxPoint x="150" y="475" as="sourcePoint" />
          </mxGeometry>
        </mxCell>
        <mxCell id="rBTdQDyXdU8cpYvEh4Aw-95" value="" style="rounded=0;orthogonalLoop=1;jettySize=auto;html=1;endArrow=oval;endFill=0;sketch=0;sourcePerimeterSpacing=0;targetPerimeterSpacing=0;endSize=10;" edge="1" target="rBTdQDyXdU8cpYvEh4Aw-96" parent="1" source="rBTdQDyXdU8cpYvEh4Aw-43">
          <mxGeometry relative="1" as="geometry">
            <mxPoint x="110" y="475" as="sourcePoint" />
          </mxGeometry>
        </mxCell>
        <mxCell id="rBTdQDyXdU8cpYvEh4Aw-96" value="" style="ellipse;whiteSpace=wrap;html=1;align=center;aspect=fixed;fillColor=none;strokeColor=none;resizable=0;perimeter=centerPerimeter;rotatable=0;allowArrows=0;points=[];outlineConnect=1;" vertex="1" parent="1">
          <mxGeometry x="125" y="470" width="10" height="10" as="geometry" />
        </mxCell>
      </root>
    </mxGraphModel>
  </diagram>
</mxfile>
